<?xml version="1.0" encoding="iso-8859-1"?>
<!-- Generator: Adobe Illustrator 19.0.0, SVG Export Plug-In . SVG Version: 6.00 Build 0)  -->
<svg version="1.1" id="Layer_1" xmlns="http://www.w3.org/2000/svg" xmlns:xlink="http://www.w3.org/1999/xlink" x="0px" y="0px"
	 viewBox="0 0 507.2 507.2" style="enable-background:new 0 0 507.2 507.2;" xml:space="preserve">
<path style="fill:#B4CDD1;" d="M219.128,248.552c0,136.136-28.536,246.496-83.976,246.496c-55.432,0-92.192-110.36-92.192-246.496
	C42.96,112.408,92,0.016,147.44,0.016C202.864,0.008,219.128,112.408,219.128,248.552z"/>
<g>
	<g>
		<path id="SVGCleanerId_0" style="fill:#CC2323;" d="M217.984,195.016c0,147.584-39.352,267.24-87.888,267.24
			c-26.696,0-87.88-119.656-87.88-267.24C42.208,47.408,118.032,0,144.712,0C171.4,0,217.984,47.408,217.984,195.016z"/>
	</g>
	<g>
		<path id="SVGCleanerId_0_1_" style="fill:#CC2323;" d="M217.984,195.016c0,147.584-39.352,267.24-87.888,267.24
			c-26.696,0-87.88-119.656-87.88-267.24C42.208,47.408,118.032,0,144.712,0C171.4,0,217.984,47.408,217.984,195.016z"/>
	</g>
</g>
<g>
	<path id="SVGCleanerId_0_2_" style="fill:#E03434;" d="M217.984,195.016c0,147.584-39.352,267.24-87.888,267.24
		c-26.696,0-87.88-119.656-87.88-267.24C42.208,47.408,118.032,0,144.712,0C171.4,0,217.984,47.408,217.984,195.016z"/>
</g>
<path style="fill:#CC2323;" d="M144.712,0c-5.864,0-14.12,2.304-23.4,7.44l-66.72,303.368
	c19.296,89.6,56.312,151.448,75.504,151.448c48.536,0,87.888-119.656,87.888-267.24C217.984,47.408,171.4,0,144.712,0z"/>
<path style="fill:#B70D0D;" d="M144.712,0c-2.88,0-6.376,0.592-10.248,1.768v460.144c46.504-6.92,83.52-123.768,83.52-266.896
	C217.984,47.408,171.4,0,144.712,0z"/>
<path style="fill:#CC2323;" d="M55.592,299.088c11.08-123.968,33.576-166.864,74.512-166.864c-90.168,0,86.296-5.2,82.288,225.344
	c-2.168,124.472-48.232,158.648-82.288,147.72C91.128,492.776,46,406.52,55.592,299.088z"/>
<path style="fill:#B70D0D;" d="M134.456,154.784V506.4c33.496,6.768,75.856-29.584,77.936-148.832
	C214.496,236.84,167.128,180.816,134.456,154.784z"/>
<path style="fill:#EAF3F4;" d="M48.424,117.096c25.304-2.824,54.976-6.576,86.736-6.576c28.848,0,55.992,3.112,79.688,5.784
	C206.792,29.984,183.264,0,144.712,0C106.04,0,63.952,30.168,48.424,117.096z"/>
<path style="fill:#C7DDE2;" d="M48.424,117.096c25.304-2.824,54.976-6.576,86.736-6.576c28.848,0,55.992,3.112,79.688,5.784
	C206.792,29.984,183.264,0,144.712,0"/>
<path style="fill:#B4CDD1;" d="M135.152,110.52c28.848,0,55.992,3.112,79.688,5.784C206.792,29.984,183.264,0,144.712,0"/>
<g>
	<circle style="fill:#C7DDE2;" cx="95.536" cy="164.904" r="5.64"/>
	<circle style="fill:#C7DDE2;" cx="95.536" cy="197.168" r="5.64"/>
	<circle style="fill:#C7DDE2;" cx="95.536" cy="229.424" r="5.64"/>
	<circle style="fill:#C7DDE2;" cx="95.536" cy="261.68" r="5.64"/>
	<circle style="fill:#C7DDE2;" cx="169.288" cy="164.904" r="5.632"/>
	<circle style="fill:#C7DDE2;" cx="169.288" cy="197.168" r="5.632"/>
	<circle style="fill:#C7DDE2;" cx="169.288" cy="229.424" r="5.632"/>
	<circle style="fill:#C7DDE2;" cx="169.288" cy="261.68" r="5.632"/>
</g>
<g>
	<path style="fill:#EAF3F4;" d="M160.824,164.896c0,1.408-1.168,2.56-2.56,2.56h-52.232c-1.408,0-2.56-1.16-2.56-2.56l0,0
		c0-1.408,1.16-2.56,2.56-2.56h52.232C159.664,162.328,160.824,163.488,160.824,164.896L160.824,164.896z"/>
	<path style="fill:#EAF3F4;" d="M159.984,196.48c0,1.408-1.16,2.552-2.56,2.552h-52.232c-1.416,0-2.56-1.152-2.56-2.552l0,0
		c0-1.416,1.152-2.56,2.56-2.56h52.232C158.824,193.92,159.984,195.064,159.984,196.48L159.984,196.48z"/>
	<path style="fill:#EAF3F4;" d="M159.984,229.256c0,1.408-1.16,2.56-2.56,2.56h-52.232c-1.416,0-2.56-1.16-2.56-2.56l0,0
		c0-1.408,1.152-2.56,2.56-2.56h52.232C158.824,226.688,159.984,227.848,159.984,229.256L159.984,229.256z"/>
	<path style="fill:#EAF3F4;" d="M160.328,262.04c0,1.408-1.16,2.552-2.56,2.552h-52.232c-1.408,0-2.568-1.152-2.568-2.552l0,0
		c0-1.416,1.168-2.568,2.568-2.568h52.232C159.168,259.472,160.328,260.616,160.328,262.04L160.328,262.04z"/>
</g>
<path style="fill:#E83A3A;" d="M201.4,366.68c0,53.264-24.736,122.152-60.192,124.28c-26.968,1.624-65.944-68.72-65.944-121.992
	c0-53.256,27.752-66.472,54.776-66.472S201.4,313.424,201.4,366.68z"/>
<path style="fill:#4F1237;" d="M198.656,377.48c0,53.272-21.992,111.344-57.456,113.48c-26.968,1.624-65.944-68.72-65.944-121.992
	c0-53.256,38.92-54.52,65.944-54.52C168.232,314.44,198.656,324.224,198.656,377.48z"/>
<path style="fill:#330924;" d="M141.2,377.256c21.704,0,45.52,6.36,54.128,36.376c2.144-11.832,3.328-24.096,3.328-36.152
	c0-53.256-30.424-63.04-57.456-63.04c-27.024,0-65.944,1.264-65.944,54.52c0,11.352,1.848,23.464,4.888,35.48
	C91.384,378.152,119.952,377.256,141.2,377.256z"/>
<path style="fill:#CC2323;" d="M176.072,347.376c0.088,4.52-3.504,8.264-8.032,8.36l-64.512,1.384
	c-4.528,0.096-8.28-3.496-8.368-8.024l-1.264-59.392c-0.104-4.52,3.496-8.272,8.008-8.368l64.52-1.376
	c4.528-0.096,8.272,3.488,8.376,8.016L176.072,347.376z"/>
<path style="fill:#B70D0D;" d="M174.792,287.976c-0.104-4.528-3.84-8.112-8.376-8.016l-31.96,0.688v75.816l33.576-0.728
	c4.52-0.096,8.12-3.832,8.032-8.36L174.792,287.976z"/>
<path style="fill:#B4CDD1;" d="M288.072,248.552c0,136.136,28.552,246.496,84,246.496c55.424,0,92.176-110.36,92.176-246.496
	c0-136.144-49.032-248.536-104.48-248.536C304.336,0.008,288.072,112.408,288.072,248.552z"/>
<g>
	<g>
		<path id="SVGCleanerId_1" style="fill:#CC2323;" d="M289.224,195.016c0,147.584,39.36,267.24,87.888,267.24
			c26.704,0,87.872-119.656,87.872-267.24C464.984,47.408,389.176,0,362.504,0C335.816,0,289.224,47.408,289.224,195.016z"/>
	</g>
	<g>
		<path id="SVGCleanerId_1_1_" style="fill:#CC2323;" d="M289.224,195.016c0,147.584,39.36,267.24,87.888,267.24
			c26.704,0,87.872-119.656,87.872-267.24C464.984,47.408,389.176,0,362.504,0C335.816,0,289.224,47.408,289.224,195.016z"/>
	</g>
</g>
<g>
	<path id="SVGCleanerId_1_2_" style="fill:#E03434;" d="M289.224,195.016c0,147.584,39.36,267.24,87.888,267.24
		c26.704,0,87.872-119.656,87.872-267.24C464.984,47.408,389.176,0,362.504,0C335.816,0,289.224,47.408,289.224,195.016z"/>
</g>
<path style="fill:#CC2323;" d="M362.512,0c5.864,0,14.112,2.304,23.384,7.44l66.728,303.368
	c-19.296,89.6-56.32,151.448-75.504,151.448c-48.528,0-87.888-119.656-87.888-267.24C289.224,47.408,335.816,0,362.512,0z"/>
<path style="fill:#B70D0D;" d="M362.512,0c2.88,0,6.368,0.592,10.224,1.768v460.144c-46.496-6.92-83.512-123.768-83.512-266.896
	C289.224,47.408,335.816,0,362.512,0z"/>
<path style="fill:#CC2323;" d="M451.624,299.088c-11.08-123.968-33.568-166.864-74.512-166.864c90.168,0-86.296-5.2-82.28,225.344
	c2.152,124.472,48.224,158.648,82.28,147.72C416.088,492.776,461.216,406.52,451.624,299.088z"/>
<path style="fill:#B70D0D;" d="M372.744,154.784V506.4c-33.48,6.768-75.84-29.584-77.912-148.832
	C292.728,236.84,340.072,180.816,372.744,154.784z"/>
<path style="fill:#EAF3F4;" d="M458.792,117.096c-25.296-2.824-54.976-6.576-86.728-6.576c-28.856,0-56,3.112-79.688,5.784
	C300.424,29.984,323.952,0,362.512,0C401.176,0,443.264,30.168,458.792,117.096z"/>
<path style="fill:#C7DDE2;" d="M458.792,117.096c-25.296-2.824-54.976-6.576-86.728-6.576c-28.856,0-56,3.112-79.688,5.784
	C300.424,29.984,323.952,0,362.512,0"/>
<path style="fill:#B4CDD1;" d="M372.072,110.52c-28.856,0-56,3.112-79.688,5.784C300.424,29.984,323.952,0,362.512,0"/>
<g>
	<circle style="fill:#C7DDE2;" cx="411.68" cy="164.904" r="5.632"/>
	<circle style="fill:#C7DDE2;" cx="411.68" cy="197.168" r="5.632"/>
	<circle style="fill:#C7DDE2;" cx="411.68" cy="229.424" r="5.632"/>
	<circle style="fill:#C7DDE2;" cx="411.68" cy="261.68" r="5.632"/>
	<circle style="fill:#C7DDE2;" cx="337.928" cy="164.904" r="5.632"/>
	<circle style="fill:#C7DDE2;" cx="337.928" cy="197.168" r="5.632"/>
	<circle style="fill:#C7DDE2;" cx="337.928" cy="229.424" r="5.632"/>
	<circle style="fill:#C7DDE2;" cx="337.928" cy="261.68" r="5.632"/>
</g>
<g>
	<path style="fill:#EAF3F4;" d="M346.4,164.896c0,1.408,1.144,2.56,2.552,2.56h52.232c1.408,0,2.56-1.16,2.56-2.56l0,0
		c0-1.408-1.16-2.56-2.56-2.56h-52.232C347.536,162.328,346.4,163.488,346.4,164.896L346.4,164.896z"/>
	<path style="fill:#EAF3F4;" d="M347.232,196.48c0,1.408,1.168,2.552,2.552,2.552h52.24c1.408,0,2.552-1.152,2.552-2.552l0,0
		c0-1.416-1.152-2.56-2.552-2.56h-52.24C348.4,193.92,347.232,195.064,347.232,196.48L347.232,196.48z"/>
	<path style="fill:#EAF3F4;" d="M347.232,229.256c0,1.408,1.168,2.56,2.552,2.56h52.24c1.408,0,2.552-1.16,2.552-2.56l0,0
		c0-1.408-1.152-2.56-2.552-2.56h-52.24C348.4,226.688,347.232,227.848,347.232,229.256L347.232,229.256z"/>
	<path style="fill:#EAF3F4;" d="M346.888,262.04c0,1.408,1.168,2.552,2.56,2.552h52.232c1.408,0,2.56-1.152,2.56-2.552l0,0
		c0-1.416-1.16-2.568-2.56-2.568h-52.232C348.056,259.472,346.888,260.616,346.888,262.04L346.888,262.04z"/>
</g>
<path style="fill:#E83A3A;" d="M305.824,366.68c0,53.264,24.728,122.152,60.184,124.28c26.96,1.624,65.944-68.72,65.944-121.992
	c0-53.256-27.752-66.472-54.776-66.472C350.168,302.496,305.824,313.424,305.824,366.68z"/>
<path style="fill:#4F1237;" d="M308.56,377.48c0,53.272,21.992,111.344,57.456,113.48c26.96,1.624,65.944-68.72,65.944-121.992
	c0-53.256-38.928-54.52-65.944-54.52C338.984,314.44,308.56,324.224,308.56,377.48z"/>
<path style="fill:#330924;" d="M366.016,377.256c-21.712,0-45.536,6.36-54.128,36.376c-2.144-11.832-3.328-24.096-3.328-36.152
	c0-53.256,30.424-63.04,57.456-63.04c27.016,0,65.944,1.264,65.944,54.52c0,11.352-1.848,23.464-4.888,35.48
	C415.832,378.152,387.264,377.256,366.016,377.256z"/>
<path style="fill:#CC2323;" d="M331.152,347.376c-0.096,4.52,3.504,8.264,8.024,8.36l64.504,1.384
	c4.52,0.096,8.28-3.496,8.384-8.024l1.256-59.392c0.096-4.52-3.496-8.272-8.016-8.368l-64.512-1.376
	c-4.528-0.096-8.272,3.488-8.376,8.016L331.152,347.376z"/>
<path style="fill:#B70D0D;" d="M332.424,287.976c0.104-4.528,3.84-8.112,8.376-8.016l31.944,0.688v75.816l-33.56-0.728
	c-4.52-0.096-8.12-3.832-8.024-8.36L332.424,287.976z"/>
<g>
</g>
<g>
</g>
<g>
</g>
<g>
</g>
<g>
</g>
<g>
</g>
<g>
</g>
<g>
</g>
<g>
</g>
<g>
</g>
<g>
</g>
<g>
</g>
<g>
</g>
<g>
</g>
<g>
</g>
</svg>
